<?xml version="1.0" encoding="UTF-8"?>
<!DOCTYPE svg PUBLIC "-//W3C//DTD SVG 1.1//EN" "http://www.w3.org/Graphics/SVG/1.1/DTD/svg11.dtd">
<!-- Creator: CorelDRAW 2019 (64-Bit) -->
<svg xmlns="http://www.w3.org/2000/svg" xml:space="preserve" width="16.9334mm" height="5.2906mm" version="1.1" style="shape-rendering:geometricPrecision; text-rendering:geometricPrecision; image-rendering:optimizeQuality; fill-rule:evenodd; clip-rule:evenodd"
viewBox="0 0 640.61 200.15"
 xmlns:xlink="http://www.w3.org/1999/xlink">
 <defs>
  <style type="text/css">
   <![CDATA[
    .fil1 {fill:#002B62;fill-rule:nonzero}
    .fil0 {fill:#1414A0;fill-rule:nonzero}
    .fil2 {fill:#EB6E00;fill-rule:nonzero}
   ]]>
  </style>
 </defs>
 <g id="Layer_x0020_1">
  <metadata id="CorelCorpID_0Corel-Layer"/>
  <g id="_2878019485456">
   <g>
    <path class="fil0" d="M175.84 115.96l23.25 0c5.33,0 11.59,5.61 14.41,8.69l40.78 50.99 0 -59.68 13.87 0 0 81.42 -24.28 0c-4.3,-0.16 -8.56,-1.18 -13.49,-6.64l-40.73 -51.09 0 57.73 -13.8 0 0 -81.42z"/>
    <path class="fil0" d="M464.78 197.94c-16.59,2.55 -33.38,2.81 -50.21,1.21 -9.86,-0.97 -19.51,-3.25 -28.35,-8.46 -11.16,-6.53 -14.71,-21.18 -14.57,-34.47 0.13,-12.27 3.35,-25.35 13.07,-32.49 6.36,-4.71 13.17,-6.26 20.39,-7.74 19.71,-3.92 39.45,-3.03 58.7,-0.65l0 11.62c-22.7,-4.97 -46.64,-3.74 -54.79,8.01 -5.08,7.31 -5.81,14.58 -5.81,20.71 0,11.04 3.35,27.76 23.24,31.02 12.96,2.16 25.8,0.53 38.33,-2.05l0 13.31z"/>
    <path class="fil0" d="M322.74 185.28c1.97,0.02 33.22,0.18 43.96,0l0 12.16c-21.62,0.95 -42.39,1.35 -64.23,0.33 -18.52,-0.87 -21.72,-11.38 -22.07,-21.46l0 -60.35 85.26 0 0 11.61 -55.16 0 0 20.72 50.27 0 0 11.31 -50.27 0c0,6.13 0.18,13.07 0.23,14.33 0.3,7.88 3.54,10.79 12.01,11.35z"/>
   </g>
   <g>
    <g>
     <path class="fil1" d="M49.63 45.61c0.39,-1.42 0.61,-3.35 0.61,-8.7 0,-5.36 -0.21,-7.28 -0.61,-8.67 -0.95,-3.05 -2.92,-4.95 -6.31,-4.95 -3.28,0 -5.25,1.9 -6.18,4.95 -0.4,1.39 -0.59,3.31 -0.59,8.67 0,5.36 0.19,7.29 0.59,8.7 0.93,3.05 2.9,4.97 6.18,4.97 3.39,0 5.36,-1.92 6.31,-4.97zm-18.12 1.73c-0.7,-2.38 -0.9,-4.46 -0.9,-10.43 0,-5.97 0.2,-8.06 0.9,-10.4 1.73,-6.03 6.03,-9.12 11.81,-9.12 5.83,0 10.19,3.09 11.92,9.12 0.69,2.34 0.89,4.43 0.89,10.4 0,5.97 -0.2,8.05 -0.89,10.43 -1.73,5.98 -6.09,9.12 -11.92,9.12 -5.78,0 -10.09,-3.14 -11.81,-9.12z"/>
     <path class="fil1" d="M61.96 55.85c-0.34,0 -0.53,-0.22 -0.53,-0.54l0 -25.71c0,-0.36 0.19,-0.59 0.53,-0.59l4.51 0c0.29,0 0.5,0.23 0.5,0.59l0 2.25 0.06 0c1.12,-2.04 3.14,-3.44 6.15,-3.44 1.88,0 3.76,0.84 5.02,2.23 0.22,0.26 0.29,0.48 0.07,0.81l-2.63 3.7c-0.16,0.27 -0.41,0.31 -0.68,0.11 -1.09,-0.77 -2.23,-1.28 -3.5,-1.28 -3.09,0 -4.48,2.5 -4.48,6.79l0 14.55c0,0.32 -0.22,0.54 -0.5,0.54l-4.51 0z"/>
     <path class="fil1" d="M79.64 49.07c-0.51,-1.68 -0.76,-3.81 -0.76,-6.65 0,-2.83 0.25,-4.96 0.76,-6.6 1.37,-4.82 5.05,-7.42 9.82,-7.42 3.55,0 6.36,1.62 8.25,4.19 0.15,0.2 0.19,0.54 -0.06,0.76l-3.09 3.08c-0.28,0.22 -0.53,0.17 -0.72,-0.11 -1.18,-1.51 -2.43,-2.35 -4.4,-2.35 -2.12,0 -3.74,1.17 -4.44,3.49 -0.4,1.35 -0.5,2.9 -0.5,4.96 0,2.09 0.1,3.68 0.5,5.01 0.7,2.29 2.32,3.47 4.44,3.47 1.96,0 3.21,-0.85 4.4,-2.33 0.19,-0.3 0.44,-0.3 0.72,-0.09l3.09 3.11c0.24,0.2 0.21,0.46 0.06,0.75 -1.9,2.5 -4.7,4.12 -8.25,4.12 -4.77,0 -8.44,-2.64 -9.82,-7.4z"/>
     <path class="fil1" d="M117.46 55.85c-0.28,0 -0.51,-0.22 -0.51,-0.54l0 -15.48c0,-3.45 -1.52,-5.85 -4.47,-5.85 -2.89,0 -4.54,2.4 -4.54,5.85l0 15.48c0,0.32 -0.22,0.54 -0.5,0.54l-4.54 0c-0.31,0 -0.49,-0.22 -0.49,-0.54l0 -36.75c0,-0.33 0.18,-0.55 0.49,-0.55l4.54 0c0.28,0 0.5,0.22 0.5,0.55l0 12.99 0.04 0c1.05,-1.69 3.11,-3.15 6.27,-3.15 5.09,0 8.26,4.22 8.26,9.97l0 16.94c0,0.32 -0.23,0.54 -0.53,0.54l-4.51 0z"/>
     <path class="fil1" d="M142.12 37.14c-0.63,-2.16 -2.38,-3.46 -4.63,-3.46 -2.27,0 -4.04,1.31 -4.68,3.46 -0.22,0.67 -0.31,1.37 -0.31,2.29 0,0.23 0.09,0.33 0.31,0.33l9.31 0c0.2,0 0.31,-0.1 0.31,-0.33 0,-0.92 -0.11,-1.61 -0.31,-2.29zm-14.34 11.87c-0.52,-1.73 -0.85,-3.81 -0.85,-6.6 0,-2.76 0.3,-4.88 0.78,-6.59 1.34,-4.7 5,-7.41 9.72,-7.41 4.88,0 8.46,2.84 9.78,7.41 0.54,1.9 0.79,3.73 0.79,8.07 0,0.31 -0.15,0.54 -0.53,0.54l-14.67 0c-0.22,0 -0.31,0.11 -0.31,0.36 0,0.76 0.15,1.45 0.38,2.05 0.77,2.62 2.63,4.06 5.32,4.06 2.67,0 4.41,-1.12 5.58,-2.56 0.22,-0.28 0.47,-0.32 0.73,-0.12l2.94 2.89c0.21,0.23 0.21,0.51 0.02,0.78 -2.03,2.7 -5.4,4.58 -9.78,4.58 -5.04,0 -8.58,-2.77 -9.91,-7.45z"/>
     <path class="fil1" d="M151.26 52.21c-0.18,-0.23 -0.18,-0.53 0,-0.77l2.85 -3.34c0.18,-0.2 0.5,-0.2 0.68,0 1.72,1.79 4.46,3.07 6.96,3.07 2.9,0 4.39,-1.35 4.39,-3.15 0,-1.63 -0.86,-2.61 -3.95,-2.97l-2.59 -0.27c-4.82,-0.58 -7.3,-3.34 -7.3,-7.9 0,-5.19 3.33,-8.47 9.26,-8.47 3.67,0 6.79,1.41 8.91,3.28 0.27,0.22 0.27,0.58 0.08,0.78l-2.4 3.28c-0.23,0.3 -0.45,0.3 -0.69,0.11 -1.48,-1.17 -3.84,-2.22 -6.22,-2.22 -2.35,0 -3.6,1.17 -3.6,2.79 0,1.55 0.85,2.49 3.92,2.84l2.58 0.28c4.95,0.52 7.31,3.44 7.31,7.84 0,5.33 -3.46,9.07 -9.96,9.07 -4.9,0 -8.24,-2.16 -10.24,-4.25z"/>
     <path class="fil1" d="M183 56.19c-4.77,0 -6.61,-2.62 -6.61,-7.86l0 -14.13c0,-0.23 -0.1,-0.34 -0.28,-0.34l-1.57 0c-0.29,0 -0.49,-0.22 -0.49,-0.54l0 -3.72c0,-0.37 0.2,-0.59 0.49,-0.59l1.57 0c0.18,0 0.28,-0.11 0.28,-0.34l0 -7.32c0,-0.34 0.21,-0.56 0.5,-0.56l4.55 0c0.31,0 0.5,0.21 0.5,0.56l0 7.32c0,0.23 0.1,0.34 0.31,0.34l3.19 0c0.28,0 0.44,0.23 0.44,0.59l0 3.72c0,0.32 -0.16,0.54 -0.44,0.54l-3.19 0c-0.21,0 -0.31,0.11 -0.31,0.34l0 13.9c0,1.91 0.69,2.49 2.23,2.49l1.26 0c0.28,0 0.44,0.24 0.44,0.57l0 4.46c0,0.34 -0.16,0.57 -0.44,0.57l-2.42 0z"/>
     <path class="fil1" d="M191.37 55.85c-0.29,0 -0.48,-0.22 -0.48,-0.54l0 -25.71c0,-0.36 0.19,-0.59 0.48,-0.59l4.55 0c0.29,0 0.48,0.23 0.48,0.59l0 2.25 0.07 0c1.14,-2.04 3.16,-3.44 6.16,-3.44 1.88,0 3.77,0.84 5.01,2.23 0.23,0.26 0.28,0.48 0.09,0.81l-2.61 3.7c-0.2,0.27 -0.44,0.31 -0.7,0.11 -1.1,-0.77 -2.26,-1.28 -3.51,-1.28 -3.08,0 -4.51,2.5 -4.51,6.79l0 14.55c0,0.32 -0.19,0.54 -0.48,0.54l-4.55 0z"/>
     <path class="fil1" d="M223 46.84l0 -2.06c0,-0.24 -0.08,-0.35 -0.29,-0.35l-3.94 0c-3.58,0 -5.14,1.12 -5.14,3.63 0,2.21 1.44,3.36 4.08,3.36 3.43,0 5.29,-1.53 5.29,-4.57zm0.61 9.01c-0.31,0 -0.5,-0.22 -0.5,-0.54l0 -1.98 -0.03 0c-1.17,1.85 -3.36,3.14 -6.74,3.14 -4.32,0 -7.99,-2.55 -7.99,-8.19 0,-5.86 3.67,-8.52 9.53,-8.52l4.84 0c0.2,0 0.29,-0.1 0.29,-0.33l0 -1.26c0,-3.07 -1.27,-4.48 -5.29,-4.48 -2.64,0 -4.29,0.84 -5.44,1.85 -0.21,0.22 -0.5,0.16 -0.65,-0.11l-1.87 -3.67c-0.12,-0.28 -0.08,-0.57 0.13,-0.75 1.92,-1.52 4.55,-2.6 8.46,-2.6 7.24,0 9.91,2.78 9.91,9.36l0 17.55c0,0.33 -0.21,0.54 -0.51,0.54l-4.13 0z"/>
     <path class="fil1" d="M241.2 56.19c-4.78,0 -6.61,-2.62 -6.61,-7.86l0 -14.13c0,-0.23 -0.1,-0.34 -0.28,-0.34l-1.58 0c-0.26,0 -0.52,-0.22 -0.52,-0.54l0 -3.72c0,-0.37 0.25,-0.59 0.52,-0.59l1.58 0c0.18,0 0.28,-0.11 0.28,-0.34l0 -7.32c0,-0.34 0.21,-0.56 0.48,-0.56l4.54 0c0.28,0 0.52,0.21 0.52,0.56l0 7.32c0,0.23 0.07,0.34 0.29,0.34l3.17 0c0.29,0 0.47,0.23 0.47,0.59l0 3.72c0,0.32 -0.18,0.54 -0.47,0.54l-3.17 0c-0.22,0 -0.29,0.11 -0.29,0.34l0 13.9c0,1.91 0.69,2.49 2.2,2.49l1.26 0c0.29,0 0.47,0.24 0.47,0.57l0 4.46c0,0.34 -0.18,0.57 -0.47,0.57l-2.39 0z"/>
     <path class="fil1" d="M249.57 55.85c-0.3,0 -0.5,-0.22 -0.5,-0.54l0 -25.71c0,-0.36 0.2,-0.59 0.5,-0.59l4.54 0c0.31,0 0.5,0.23 0.5,0.59l0 25.71c0,0.32 -0.19,0.54 -0.5,0.54l-4.54 0zm0 -31.89c-0.3,0 -0.5,-0.24 -0.5,-0.58l0 -4.82c0,-0.33 0.2,-0.55 0.5,-0.55l4.54 0c0.31,0 0.5,0.22 0.5,0.55l0 4.82c0,0.34 -0.19,0.58 -0.5,0.58l-4.54 0z"/>
     <path class="fil1" d="M275.86 55.85c-0.32,0 -0.51,-0.22 -0.51,-0.54l0 -15.48c0,-3.45 -1.52,-5.85 -4.48,-5.85 -2.85,0 -4.57,2.4 -4.57,5.85l0 15.48c0,0.32 -0.19,0.54 -0.47,0.54l-4.55 0c-0.27,0 -0.5,-0.22 -0.5,-0.54l0 -25.71c0,-0.36 0.22,-0.59 0.5,-0.59l4.55 0c0.29,0 0.47,0.23 0.47,0.59l0 1.95 0.06 0c1.06,-1.69 3.12,-3.15 6.3,-3.15 5.05,0 8.22,4.22 8.22,9.97l0 16.94c0,0.32 -0.18,0.54 -0.48,0.54l-4.54 0z"/>
     <path class="fil1" d="M299.81 46.17c0.38,-1.23 0.54,-2.57 0.54,-4.41 0,-1.77 -0.16,-3.12 -0.54,-4.4 -0.66,-2.15 -1.99,-3.39 -4.29,-3.39 -2.2,0 -3.51,1.24 -4.17,3.39 -0.4,1.28 -0.56,2.63 -0.56,4.4 0,1.84 0.16,3.19 0.56,4.41 0.66,2.22 1.97,3.44 4.17,3.44 2.3,0 3.63,-1.21 4.29,-3.44zm-13.69 16.3c-0.18,-0.28 -0.18,-0.51 0.08,-0.77l2.89 -3.31c0.25,-0.28 0.5,-0.28 0.76,0 1.47,1.6 3.2,2.52 5.17,2.52 3.67,0 5.34,-2.25 5.34,-6.4l0 -2.53 -0.05 0c-1.08,1.92 -3.12,3.15 -6.19,3.15 -4.01,0 -6.87,-2.3 -8.08,-6.54 -0.59,-2.02 -0.79,-3.89 -0.79,-6.84 0,-2.95 0.2,-4.74 0.79,-6.78 1.21,-4.3 4.07,-6.58 8.08,-6.58 3.08,0 5.11,1.22 6.19,3.17l0.05 0 0 -1.97c0,-0.36 0.18,-0.59 0.49,-0.59l4.55 0c0.31,0 0.5,0.23 0.5,0.59l0 24.56c0,7.69 -3.82,12.32 -11.14,12.32 -3.3,0 -6.79,-1.57 -8.63,-4.01z"/>
    </g>
    <g>
     <path class="fil2" d="M337.26 43.69l0 3.65c0,3.09 -2.39,5.12 -6.07,5.12 -2.34,0 -5.16,-0.76 -5.16,-4.32 0,-2.22 0.68,-4.45 6,-4.45l5.23 0zm-5.29 -15.25c-3.26,0 -5.94,0.92 -7.72,2.63 -0.47,0.4 -0.59,1 -0.27,1.57l0.87 1.42c0.33,0.46 1.01,0.55 1.51,0.12 1.36,-1.26 3,-1.8 5.44,-1.8 4.68,0 5.46,1.69 5.46,5.3l0 2.32 -5.6 0c-7.72,0 -9.33,4.44 -9.33,8.21 0,5.09 3.1,8.18 8.34,8.18 2.86,0 5.23,-0.95 6.68,-2.54l0 0.84c0,0.66 0.43,1.16 1.02,1.16l1.57 0c0.58,0 1.03,-0.5 1.03,-1.16l0 -17.12c0,-6.56 -2.53,-9.12 -9,-9.12z"/>
     <path class="fil2" d="M369.08 32.5c2.77,0 4.59,1.35 5.39,4.07 0.41,1.36 0.61,3.29 0.61,5.89 0,2.54 -0.2,4.49 -0.61,5.81 -0.8,2.7 -2.62,4.07 -5.39,4.07 -2.76,0 -4.6,-1.39 -5.41,-4.07 -0.4,-1.32 -0.59,-3.12 -0.59,-5.81 0,-2.74 0.19,-4.54 0.62,-5.89 0.78,-2.67 2.63,-4.07 5.38,-4.07zm0.57 -4.06c-2.91,0 -5.07,0.99 -6.57,2.84l0 -12.14c0,-0.66 -0.43,-1.13 -1.03,-1.13l-1.68 0c-0.58,0 -1.02,0.47 -1.02,1.13l0 35.55c0,0.66 0.44,1.16 1.02,1.16l1.68 0c0.6,0 1.03,-0.5 1.03,-1.16l0 -1.16c1.5,1.91 3.65,2.86 6.57,2.86 4.26,0 7.06,-2.23 8.37,-6.57 0.61,-2.11 0.87,-4.4 0.87,-7.36 0,-3.04 -0.26,-5.32 -0.87,-7.46 -1.31,-4.34 -4.11,-6.56 -8.37,-6.56z"/>
     <path class="fil2" d="M398.82 30.36c-1.29,-1.21 -3.09,-1.92 -5,-1.92 -2.44,0 -4.43,0.98 -5.69,2.77l0 -1.04c0,-0.68 -0.47,-1.17 -1.07,-1.17l-1.63 0c-0.61,0 -1.06,0.49 -1.06,1.17l0 24.51c0,0.67 0.45,1.17 1.06,1.17l1.63 0c0.6,0 1.07,-0.5 1.07,-1.17l0 -14.17c0,-2.98 0.66,-8.01 5.05,-8.01 1.18,0 2.22,0.36 3.45,1.21 0.22,0.12 0.42,0.18 0.64,0.18 0.2,0 0.51,-0.09 0.8,-0.48l0.96 -1.48c0.21,-0.26 0.26,-0.59 0.22,-0.89 -0.05,-0.28 -0.21,-0.54 -0.43,-0.69z"/>
     <path class="fil2" d="M405.79 18.01l-2.16 0c-0.6,0 -1.04,0.47 -1.04,1.13l0 3.03c0,0.65 0.44,1.15 1.04,1.15l2.16 0c0.59,0 1.04,-0.5 1.04,-1.15l0 -3.03c0,-0.66 -0.44,-1.13 -1.04,-1.13z"/>
     <path class="fil2" d="M405.52 29l-1.63 0c-0.6,0 -1.07,0.49 -1.07,1.17l0 24.52c0,0.67 0.48,1.17 1.07,1.17l1.63 0c0.6,0 1.04,-0.5 1.04,-1.17l0 -24.52c0,-0.67 -0.44,-1.17 -1.04,-1.17z"/>
     <path class="fil2" d="M421.82 51.95c-2.6,0 -4.34,-1.35 -5.16,-4.07 -0.44,-1.3 -0.64,-3.11 -0.64,-5.64 0,-2.54 0.21,-4.31 0.64,-5.71 0.81,-2.67 2.55,-4.03 5.16,-4.03 2.7,0 4.46,1.35 5.26,4.07 0.41,1.35 0.56,2.91 0.56,5.67 0,2.73 -0.16,4.35 -0.56,5.66 -0.81,2.71 -2.6,4.06 -5.26,4.06zm8.52 -22.94l-1.65 0c-0.6,0 -1.04,0.49 -1.04,1.17l0 1.04c-1.39,-1.82 -3.53,-2.77 -6.33,-2.77 -4.07,0 -6.98,2.35 -8.27,6.63 -0.55,1.91 -0.81,4.06 -0.81,7.16 0,3.09 0.26,5.25 0.81,7.17 1.22,4.2 4.19,6.55 8.27,6.55 2.8,0 4.94,-0.91 6.33,-2.76l0 1.65c0,4.9 -1.91,7.16 -6.05,7.16 -2.19,0 -3.98,-0.85 -5.29,-2.52 -0.38,-0.5 -1.01,-0.64 -1.5,-0.16l-1.17 1.13c-0.48,0.41 -0.56,0.99 -0.24,1.61 1.44,2.37 4.29,3.95 7.73,3.95 6.34,0 10.23,-4.01 10.23,-11.26l0 -24.59c0,-0.68 -0.43,-1.17 -1.01,-1.17z"/>
     <path class="fil2" d="M448.74 28.44c-2.67,0 -4.9,1.05 -6.34,2.84l0 -12.14c0,-0.66 -0.45,-1.13 -1.06,-1.13l-1.68 0c-0.58,0 -1.04,0.47 -1.04,1.13l0 35.54c0,0.67 0.46,1.17 1.04,1.17l1.68 0c0.58,0 1.06,-0.5 1.06,-1.17l0 -15.68c0,-3.88 2.27,-6.5 5.72,-6.5 3.72,0 5.52,2.31 5.52,7.05l0 15.13c0,0.67 0.48,1.17 1.07,1.17l1.64 0c0.62,0 1.04,-0.5 1.04,-1.17l0 -15.83c0,-6.59 -3.16,-10.41 -8.66,-10.41z"/>
     <path class="fil2" d="M472.64 29l-4.08 0 0 -7.06c0,-0.66 -0.46,-1.15 -1.04,-1.15l-1.66 0c-0.6,0 -1.04,0.49 -1.04,1.15l0 7.06 -2.18 0c-0.59,0 -1.05,0.49 -1.05,1.17l0 1.51c0,0.64 0.47,1.14 1.05,1.14l2.18 0 0 15.65c0,5.36 1.91,7.54 6.59,7.54l1.24 0c0.62,0 1.08,-0.5 1.08,-1.14l0 -1.73c0,-0.67 -0.46,-1.18 -1.08,-1.18l-0.91 0c-2.37,0 -3.17,-0.53 -3.17,-3.65l0 -15.48 4.08 0c0.62,0 1.08,-0.5 1.08,-1.14l0 -1.51c0,-0.67 -0.46,-1.17 -1.08,-1.17z"/>
     <path class="fil2" d="M487.46 32.38c2.87,0 4.81,1.52 5.67,4.4 0.25,0.93 0.38,1.92 0.41,3.22l-12.16 0c0.06,-1.31 0.16,-2.3 0.43,-3.22 0.82,-2.84 2.8,-4.4 5.64,-4.4zm0 -3.94c-4.48,0 -7.82,2.61 -9.14,7.09 -0.5,1.75 -0.75,3.82 -0.75,6.86 0,3.02 0.25,5.02 0.75,6.79 1.41,4.72 4.66,7.2 9.42,7.2 3.71,0 6.95,-1.66 8.88,-4.53 0.38,-0.56 0.35,-1.21 -0.11,-1.6l-1.13 -1.16c-0.48,-0.43 -1.08,-0.34 -1.48,0.19 -1.45,2.03 -3.48,3.05 -6.02,3.05 -3.05,0 -5.07,-1.54 -6.03,-4.58 -0.33,-1.1 -0.44,-2.22 -0.47,-4.08l14.82 0c0.66,0 1.11,-0.48 1.11,-1.13 0,-3.51 -0.17,-5.27 -0.69,-7.03 -1.34,-4.49 -4.69,-7.09 -9.17,-7.09z"/>
     <path class="fil2" d="M517.44 30.36c-1.26,-1.21 -3.1,-1.92 -4.97,-1.92 -2.44,0 -4.45,0.98 -5.73,2.77l0 -1.04c0,-0.68 -0.47,-1.17 -1.06,-1.17l-1.66 0c-0.58,0 -1.01,0.49 -1.01,1.17l0 24.51c0,0.67 0.44,1.17 1.01,1.17l1.66 0c0.59,0 1.06,-0.5 1.06,-1.17l0 -14.17c0,-2.98 0.65,-8.01 5.04,-8.01 1.2,0 2.27,0.36 3.46,1.21 0.23,0.12 0.41,0.18 0.61,0.18 0.23,0 0.55,-0.09 0.84,-0.48l0.95 -1.48c0.19,-0.26 0.28,-0.59 0.22,-0.89 -0.03,-0.28 -0.21,-0.54 -0.43,-0.69z"/>
     <path class="fil2" d="M562.71 29l-1.79 0c-0.7,0 -0.94,0.48 -1.15,0.93l-5.29 18.73 -5.6 -18.73c-0.18,-0.56 -0.6,-0.93 -1.1,-0.93l-1.44 0c-0.36,0 -0.85,0.16 -1.11,0.93l-5.48 18.73 -5.47 -18.76c-0.17,-0.41 -0.43,-0.9 -1.14,-0.9l-1.75 0c-0.42,0 -0.67,0.2 -0.76,0.39 -0.13,0.12 -0.27,0.48 -0.09,0.94l7.2 24.53c0.18,0.64 0.58,0.99 1.12,0.99l1.48 0c0.58,0 0.94,-0.35 1.11,-0.96l5.63 -18.76 5.48 18.73c0.19,0.62 0.59,0.99 1.16,0.99l1.47 0c0.59,0 0.97,-0.37 1.11,-0.98l7.25 -24.52c0.14,-0.48 0.03,-0.84 -0.07,-0.96 -0.11,-0.19 -0.36,-0.39 -0.77,-0.39z"/>
     <path class="fil2" d="M576.47 52.34c-2.74,0 -4.72,-1.54 -5.61,-4.33 -0.4,-1.44 -0.61,-3.05 -0.61,-5.62 0,-2.55 0.21,-4.13 0.61,-5.56 0.89,-2.78 2.87,-4.34 5.61,-4.34 2.81,0 4.78,1.56 5.66,4.34 0.43,1.43 0.58,3.02 0.58,5.56 0,2.56 -0.15,4.18 -0.58,5.62 -0.87,2.79 -2.84,4.33 -5.66,4.33zm0 -23.91c-4.49,0 -7.85,2.61 -9.18,7.1 -0.55,1.99 -0.8,4.05 -0.8,6.86 0,2.89 0.25,4.88 0.8,6.89 1.33,4.51 4.69,7.1 9.18,7.1 4.57,0 7.91,-2.6 9.24,-7.11 0.59,-2 0.8,-3.99 0.8,-6.88 0,-2.82 -0.21,-4.87 -0.8,-6.86 -1.33,-4.49 -4.67,-7.1 -9.24,-7.1z"/>
     <path class="fil2" d="M606.46 30.36c-1.29,-1.21 -3.09,-1.92 -5.01,-1.92 -2.42,0 -4.39,0.98 -5.69,2.77l0 -1.04c0,-0.68 -0.45,-1.17 -1.04,-1.17l-1.65 0c-0.57,0 -1.05,0.49 -1.05,1.17l0 24.51c0,0.67 0.48,1.17 1.05,1.17l1.65 0c0.59,0 1.04,-0.5 1.04,-1.17l0 -14.17c0,-2.98 0.65,-8.01 5.07,-8.01 1.17,0 2.21,0.36 3.43,1.21 0.22,0.12 0.43,0.18 0.61,0.18 0.25,0 0.53,-0.09 0.84,-0.48l0.94 -1.48c0.2,-0.26 0.28,-0.59 0.25,-0.89 -0.05,-0.28 -0.19,-0.54 -0.44,-0.69z"/>
     <path class="fil2" d="M616.94 51.95l-0.85 0c-1.32,0 -1.92,-0.36 -1.92,-2.67l0 -30.14c0,-0.66 -0.48,-1.13 -1.07,-1.13l-1.64 0c-0.59,0 -1.03,0.48 -1.03,1.13l0 30.24c0,4.63 1.6,6.62 5.35,6.62l1.15 0c0.57,0 1.03,-0.5 1.03,-1.15l0 -1.72c0,-0.67 -0.47,-1.18 -1.03,-1.18z"/>
     <path class="fil2" d="M630.87 52.34c-2.72,0 -4.57,-1.39 -5.38,-4.07 -0.4,-1.32 -0.62,-3.28 -0.62,-5.81 0,-2.61 0.23,-4.53 0.62,-5.89 0.8,-2.67 2.66,-4.07 5.38,-4.07 2.78,0 4.63,1.39 5.39,4.07 0.45,1.35 0.63,3.15 0.63,5.89 0,2.69 -0.18,4.49 -0.63,5.81 -0.76,2.68 -2.61,4.07 -5.39,4.07zm8.72 -34.33l-1.65 0c-0.6,0 -1.04,0.47 -1.04,1.13l0 12.14c-1.48,-1.86 -3.67,-2.84 -6.54,-2.84 -4.33,0 -7.18,2.22 -8.41,6.56 -0.62,1.98 -0.84,4.23 -0.84,7.46 0,3.17 0.22,5.41 0.84,7.36 1.24,4.34 4.08,6.57 8.41,6.57 2.88,0 5.07,-0.95 6.54,-2.86l0 1.15c0,0.67 0.45,1.17 1.04,1.17l1.65 0c0.62,0 1.02,-0.5 1.02,-1.17l0 -35.54c0,-0.66 -0.4,-1.13 -1.02,-1.13z"/>
    </g>
    <path class="fil2" d="M24.14 61.37c1.27,-0.65 1.91,-2.33 1.35,-3.74l-23.45 -56.89 0 -0.01 0 -0.05c-0.22,-0.56 -0.89,-0.83 -1.41,-0.58 -0.52,0.27 -0.74,0.95 -0.56,1.56l0 0.03 20.74 58.2c0.54,1.48 2.05,2.08 3.31,1.48l0.03 0z"/>
   </g>
  </g>
 </g>
</svg>
